<svg width="56" height="56" viewBox="0 0 56 56" fill="none" xmlns="http://www.w3.org/2000/svg">
<path d="M0 28C0 16.7643 0 11.1465 2.69649 7.11088C3.86382 5.36383 5.36383 3.86382 7.11088 2.69649C11.1465 0 16.7643 0 28 0C39.2357 0 44.8535 0 48.8891 2.69649C50.6362 3.86382 52.1362 5.36383 53.3035 7.11088C56 11.1465 56 16.7643 56 28V56H28C16.7643 56 11.1465 56 7.11088 53.3035C5.36383 52.1362 3.86382 50.6362 2.69649 48.8891C0 44.8535 0 39.2357 0 28Z" fill="url(#paint0_linear_84_1632)"/>
<path d="M11.0156 44.2901L13.4165 35.5719C11.9322 33.013 11.1535 30.115 11.1616 27.1524C11.1616 17.8691 18.7535 10.3214 28.073 10.3214C32.5989 10.3214 36.849 12.0731 40.0366 15.2536C43.2324 18.4342 44.9924 22.6641 44.9843 27.1605C44.9843 36.4437 37.3925 43.9914 28.0649 43.9914H28.0568C25.226 43.9914 22.444 43.2811 19.9701 41.9411L11.0156 44.2901ZM20.4 38.8978L20.911 39.2045C23.0685 40.4799 25.5424 41.15 28.0649 41.158H28.073C35.8189 41.158 42.1293 34.8858 42.1293 27.1685C42.1293 23.431 40.6693 19.9195 38.017 17.2717C35.3647 14.624 31.8284 13.1709 28.073 13.1709C20.327 13.1629 14.0167 19.4351 14.0167 27.1524C14.0167 29.7921 14.7548 32.3672 16.1661 34.5952L16.4986 35.1279L15.0792 40.2862L20.4 38.8978Z" fill="white"/>
<path d="M11.6077 43.7009L13.9274 35.2813C12.4918 32.8192 11.7374 30.0181 11.7374 27.1605C11.7456 18.2001 19.0698 10.9107 28.0729 10.9107C32.4447 10.9107 36.5408 12.6059 39.6229 15.6734C42.7051 18.7409 44.4003 22.8256 44.4003 27.1685C44.4003 36.1289 37.068 43.4183 28.0729 43.4183H28.0648C25.3314 43.4183 22.6467 42.7322 20.2621 41.4406L11.6077 43.7009Z" fill="url(#paint1_linear_84_1632)"/>
<path d="M11.0156 44.2901L13.4165 35.5719C11.9322 33.013 11.1535 30.115 11.1616 27.1524C11.1616 17.8691 18.7535 10.3214 28.073 10.3214C32.5989 10.3214 36.849 12.0731 40.0366 15.2536C43.2324 18.4342 44.9924 22.6641 44.9843 27.1605C44.9843 36.4437 37.3925 43.9914 28.0649 43.9914H28.0568C25.226 43.9914 22.444 43.2811 19.9701 41.9411L11.0156 44.2901ZM20.4 38.8978L20.911 39.2045C23.0685 40.4799 25.5424 41.15 28.0649 41.158H28.073C35.8189 41.158 42.1293 34.8858 42.1293 27.1685C42.1293 23.431 40.6693 19.9195 38.017 17.2717C35.3647 14.624 31.8284 13.1709 28.073 13.1709C20.327 13.1629 14.0167 19.4351 14.0167 27.1524C14.0167 29.7921 14.7548 32.3672 16.1661 34.5952L16.4986 35.1279L15.0792 40.2862L20.4 38.8978Z" fill="url(#paint2_linear_84_1632)"/>
<path fill-rule="evenodd" clip-rule="evenodd" d="M23.8471 20.1132C23.5308 19.4109 23.1982 19.3948 22.8981 19.3867C22.6548 19.3786 22.3709 19.3786 22.087 19.3786C21.8031 19.3786 21.3489 19.4836 20.9596 19.9033C20.5703 20.3231 19.4834 21.3402 19.4834 23.4148C19.4834 25.4814 21.0001 27.4833 21.211 27.7659C21.4219 28.0484 24.1391 32.4317 28.4298 34.1189C31.9986 35.5235 32.7286 35.2409 33.4991 35.1683C34.2697 35.0956 35.9973 34.1512 36.3542 33.1663C36.703 32.1815 36.703 31.342 36.5975 31.1644C36.4921 30.9868 36.2082 30.8818 35.7864 30.6719C35.3647 30.4621 33.2883 29.4449 32.8989 29.2996C32.5096 29.1624 32.2257 29.0898 31.95 29.5095C31.6661 29.9293 30.855 30.8738 30.6116 31.1563C30.3683 31.4388 30.1169 31.4711 29.6951 31.2612C29.2733 31.0514 27.9107 30.6074 26.2966 29.1705C25.0394 28.0565 24.1878 26.6761 23.9444 26.2563C23.7011 25.8366 23.9201 25.6105 24.131 25.4007C24.3175 25.215 24.5528 24.9082 24.7636 24.6661C24.9745 24.4239 25.0475 24.2463 25.1854 23.9638C25.3233 23.6812 25.2584 23.4391 25.153 23.2292C25.0475 23.0274 24.2202 20.9447 23.8471 20.1132Z" fill="white"/>
<defs>
<linearGradient id="paint0_linear_84_1632" x1="27.9985" y1="55.9972" x2="27.9985" y2="-0.00195929" gradientUnits="userSpaceOnUse">
<stop stop-color="#20B038"/>
<stop offset="1" stop-color="#60D66A"/>
</linearGradient>
<linearGradient id="paint1_linear_84_1632" x1="28.0031" y1="43.6992" x2="28.0031" y2="10.9095" gradientUnits="userSpaceOnUse">
<stop stop-color="#20B038"/>
<stop offset="1" stop-color="#60D66A"/>
</linearGradient>
<linearGradient id="paint2_linear_84_1632" x1="28.0033" y1="44.2869" x2="28.0033" y2="10.3214" gradientUnits="userSpaceOnUse">
<stop stop-color="#F9F9F9"/>
<stop offset="1" stop-color="white"/>
</linearGradient>
</defs>
</svg>